<svg xmlns="http://www.w3.org/2000/svg" width="1100" height="390" viewBox="0 0 1100 390" role="img" aria-labelledby="title desc">
  <title id="title">DersAtlas Python regresyon testi büyümesi</title>
  <desc id="desc">17 Eylül 2026 tarihinde 113 olan Python regresyon testi sayısı 24 Eylül 2026 tarihinde 228'e yükseldi.</desc>
  <rect width="1100" height="390" rx="24" fill="#0d1117"/>
  <text x="58" y="58" fill="#f0f6fc" font-family="Arial, sans-serif" font-size="25" font-weight="700">Python regresyon testi büyümesi</text>
  <text x="58" y="88" fill="#8b949e" font-family="Arial, sans-serif" font-size="14">CHANGELOG doğrulama kayıtları · 17–24 Eylül 2026</text>
  <line x1="78" y1="305" x2="1042" y2="305" stroke="#30363d"/>
  <line x1="78" y1="245" x2="1042" y2="245" stroke="#21262d"/>
  <line x1="78" y1="185" x2="1042" y2="185" stroke="#21262d"/>
  <line x1="78" y1="125" x2="1042" y2="125" stroke="#21262d"/>
  <text x="38" y="310" fill="#8b949e" font-family="Arial, sans-serif" font-size="12">100</text>
  <text x="38" y="250" fill="#8b949e" font-family="Arial, sans-serif" font-size="12">140</text>
  <text x="38" y="190" fill="#8b949e" font-family="Arial, sans-serif" font-size="12">180</text>
  <text x="38" y="130" fill="#8b949e" font-family="Arial, sans-serif" font-size="12">220</text>
  <path d="M100 286 L250 272 L400 268 L550 160 L700 154 L850 137 L1000 113" fill="none" stroke="#58a6ff" stroke-width="5" stroke-linecap="round" stroke-linejoin="round"/>
  <path d="M100 286 L250 272 L400 268 L550 160 L700 154 L850 137 L1000 113 L1000 305 L100 305 Z" fill="#58a6ff" opacity="0.09"/>
  <g fill="#0d1117" stroke="#79c0ff" stroke-width="4">
    <circle cx="100" cy="286" r="7"/><circle cx="250" cy="272" r="7"/><circle cx="400" cy="268" r="7"/>
    <circle cx="550" cy="160" r="7"/><circle cx="700" cy="154" r="7"/><circle cx="850" cy="137" r="7"/><circle cx="1000" cy="113" r="7"/>
  </g>
  <g fill="#f0f6fc" font-family="Arial, sans-serif" font-size="13" font-weight="700" text-anchor="middle">
    <text x="100" y="267">113</text><text x="250" y="253">122</text><text x="400" y="249">125</text>
    <text x="550" y="141">197</text><text x="700" y="135">201</text><text x="850" y="118">212</text><text x="1000" y="94">228</text>
  </g>
  <g fill="#8b949e" font-family="Arial, sans-serif" font-size="12" text-anchor="middle">
    <text x="100" y="335">17 Eyl</text><text x="250" y="335">18 Eyl</text><text x="400" y="335">19 Eyl</text>
    <text x="550" y="335">20 Eyl</text><text x="700" y="335">21 Eyl</text><text x="850" y="335">23 Eyl</text><text x="1000" y="335">24 Eyl</text>
  </g>
  <text x="78" y="370" fill="#8b949e" font-family="Arial, sans-serif" font-size="12">Test sayısı kalite yüzdesi değildir; yalnızca regresyon kapsamının büyümesini gösterir.</text>
</svg>